<svg width="251" height="71" viewBox="0 0 251 71" fill="none" xmlns="http://www.w3.org/2000/svg">
<g clip-path="url(#clip0_250_665)">
<path d="M45.0854 0.619767L20.5232 0.914932C20.8473 0.740301 21.181 0.583702 21.5184 0.443237H44.2245C44.5143 0.497335 44.8022 0.557127 45.0854 0.619767Z" fill="#302C3D"/>
<path d="M44.2254 0.443222H21.5193C21.9521 0.261947 22.3953 0.11389 22.8424 0L43.0796 0.242965C43.4666 0.303707 43.8498 0.370143 44.2254 0.443222Z" fill="#302C3D"/>
<path d="M49.5055 1.93518L18.4973 2.31006C18.6985 2.13828 18.9063 1.97219 19.1179 1.81274H49.1833C49.2911 1.85166 49.3997 1.89437 49.5055 1.93518Z" fill="#302C3D"/>
<path d="M49.1834 1.81276H19.1179C19.3448 1.64287 19.5784 1.48342 19.8167 1.33252L48.8335 1.68178C48.9508 1.72449 49.0671 1.76815 49.1843 1.81276H49.1834Z" fill="#302C3D"/>
<path d="M52.2892 3.27437L17.1304 3.69671C17.2753 3.52018 17.4268 3.35029 17.5822 3.1842H52.1328C52.1843 3.21173 52.2367 3.2421 52.2882 3.27437H52.2892Z" fill="#302C3D"/>
<path d="M52.1338 3.18419H17.5823C17.7443 3.00956 17.9131 2.84442 18.0837 2.68213L51.968 3.08929C52.0242 3.12155 52.0785 3.15193 52.1319 3.18419H52.1338Z" fill="#302C3D"/>
<path d="M54.2978 4.62012L16.1533 5.08042C16.2572 4.902 16.3697 4.72547 16.4889 4.55273H54.212C54.2425 4.57456 54.2701 4.59544 54.2987 4.61917L54.2978 4.62012Z" fill="#302C3D"/>
<path d="M54.2119 4.55375H16.4888C16.606 4.37912 16.7309 4.20449 16.8605 4.0365L54.1213 4.48636C54.1518 4.50535 54.1823 4.52907 54.2119 4.5528V4.55375Z" fill="#302C3D"/>
<path d="M55.8267 5.97263L15.4678 6.4595C15.5412 6.27823 15.6193 6.10265 15.7013 5.92517H55.78C55.7971 5.94036 55.8124 5.95554 55.8277 5.97263H55.8267Z" fill="#302C3D"/>
<path d="M55.7791 5.92515H15.7014C15.7863 5.74672 15.8749 5.57209 15.9721 5.39746L55.7305 5.8777C55.7477 5.89098 55.7648 5.90807 55.7801 5.92515H55.7791Z" fill="#302C3D"/>
<path d="M56.9859 7.32878L15.0303 7.83464L15.1189 7.50531C15.138 7.43413 15.158 7.36484 15.1771 7.29651H56.9612C56.9716 7.30695 56.9802 7.31834 56.985 7.32878H56.9859Z" fill="#302C3D"/>
<path d="M56.9621 7.29661H15.178C15.2323 7.11533 15.2905 6.93691 15.3534 6.76038L56.9363 7.26149C56.9497 7.27193 56.9582 7.28522 56.9621 7.29566V7.29661Z" fill="#302C3D"/>
<path d="M57.8774 8.68797L14.6653 9.20901L14.8102 8.66614H57.864C57.8707 8.67278 57.8745 8.68132 57.8774 8.68797Z" fill="#302C3D"/>
<path d="M57.8639 8.66613H14.8101L14.955 8.1261L57.8506 8.6424C57.8572 8.65094 57.861 8.65758 57.8639 8.66613Z" fill="#302C3D"/>
<path d="M58.556 10.0527L14.3 10.5841L14.4449 10.0375H58.5493C58.556 10.0422 58.5579 10.0479 58.556 10.0527Z" fill="#302C3D"/>
<path d="M58.5494 10.0375H14.4451L14.5919 9.49268L58.5427 10.0223C58.5494 10.027 58.5513 10.0327 58.5494 10.0375Z" fill="#302C3D"/>
<path d="M59.0642 11.4155L13.9341 11.9584L14.0809 11.407H59.0613C59.0613 11.407 59.0661 11.4136 59.0632 11.4155H59.0642Z" fill="#302C3D"/>
<path d="M59.0622 11.4071H14.0818L14.2267 10.8585L59.0603 11.3985C59.0603 11.3985 59.0622 11.4052 59.0622 11.4071Z" fill="#302C3D"/>
<path d="M59.4272 12.7784C59.4272 12.7784 59.4291 12.7803 59.4272 12.7832L13.5688 13.3346L13.7157 12.7794H59.4272V12.7784Z" fill="#302C3D"/>
<path d="M59.4274 12.7737V12.7785H13.7158L13.8626 12.2233L59.4274 12.7747V12.7737Z" fill="#302C3D"/>
<path d="M13.3526 14.1471H29.7032L29.606 14.5115L13.2039 14.7071L13.3526 14.1471Z" fill="#302C3D"/>
<path d="M59.6524 14.1471V14.149L41.7947 14.3625C41.6126 14.2876 41.4267 14.2164 41.2341 14.1471H59.6524Z" fill="#302C3D"/>
<path d="M13.5003 13.59L29.7985 13.7855L29.7032 14.1471H13.3525L13.5003 13.59Z" fill="#302C3D"/>
<path d="M59.6523 14.1452V14.1471H41.234C41.0004 14.0655 40.7583 13.9876 40.5076 13.9146L59.6523 14.1452Z" fill="#302C3D"/>
<path d="M12.9875 15.5194H29.3381L29.2409 15.8867L12.8359 16.0832L12.9875 15.5194Z" fill="#302C3D"/>
<path d="M59.7438 15.5194L44.0138 15.7092C43.9423 15.6447 43.8708 15.5839 43.7955 15.5242C43.7936 15.5223 43.7907 15.5194 43.7888 15.5194H59.7438Z" fill="#302C3D"/>
<path d="M13.1363 14.9547L29.4354 15.1531L29.3382 15.5194H12.9875L13.1363 14.9547Z" fill="#302C3D"/>
<path d="M59.7439 15.5194H43.7889C43.705 15.4529 43.6201 15.3855 43.5315 15.3239L59.7439 15.5194Z" fill="#302C3D"/>
<path d="M12.6242 16.8879H28.9748L28.8757 17.2609L12.4707 17.4593L12.6242 16.8879Z" fill="#302C3D"/>
<path d="M59.7342 16.8879L45.1043 17.0645C45.0738 17.0037 45.0394 16.9458 45.0051 16.8879H59.7342Z" fill="#302C3D"/>
<path d="M12.773 16.3224L29.0721 16.5179L28.9749 16.888H12.6243L12.773 16.3224Z" fill="#302C3D"/>
<path d="M59.7343 16.888H45.0052C44.968 16.8282 44.9318 16.7675 44.8879 16.7096L59.7333 16.888H59.7343Z" fill="#302C3D"/>
<path d="M12.2582 18.2594H28.6098L28.5097 18.6362L12.1047 18.8345L12.2582 18.2594Z" fill="#302C3D"/>
<path d="M59.6286 18.2594V18.2613L45.622 18.4293C45.6116 18.3714 45.5963 18.3154 45.5811 18.2594H59.6286Z" fill="#302C3D"/>
<path d="M12.4099 17.689L28.709 17.8854L28.6099 18.2594H12.2583L12.4099 17.689Z" fill="#302C3D"/>
<path d="M59.6286 18.2575V18.2594H45.5811C45.5658 18.2015 45.5506 18.1427 45.5315 18.0876L59.6286 18.2575Z" fill="#302C3D"/>
<path d="M11.893 19.6289H28.2436L28.1426 20.0104L11.7395 20.2078L11.893 19.6289Z" fill="#302C3D"/>
<path d="M59.4387 19.6289C59.4387 19.6289 59.4387 19.6308 59.4368 19.6337L45.7802 19.7969C45.7802 19.7409 45.7783 19.6849 45.7754 19.6289H59.4378H59.4387Z" fill="#302C3D"/>
<path d="M12.0465 19.0538L28.3457 19.2503L28.2437 19.629H11.8931L12.0465 19.0538Z" fill="#302C3D"/>
<path d="M59.4388 19.6251V19.6289H45.7764C45.7764 19.5729 45.7716 19.5169 45.7678 19.4609L59.4397 19.6242L59.4388 19.6251Z" fill="#302C3D"/>
<path d="M11.5299 21.0004H27.8805L27.7766 21.3857L11.3745 21.5841L11.5299 21.0004Z" fill="#302C3D"/>
<path d="M59.17 21.0004C59.17 21.0004 59.17 21.0051 59.1681 21.007L45.6887 21.1703C45.6973 21.1143 45.7059 21.0564 45.7106 21.0004H59.17Z" fill="#302C3D"/>
<path d="M11.6833 20.4214L27.9824 20.6169L27.8804 21.0003H11.5298L11.6833 20.4214Z" fill="#302C3D"/>
<path d="M59.17 20.9937C59.17 20.9937 59.17 20.9985 59.17 21.0004H45.7107C45.7193 20.9444 45.7259 20.8884 45.7298 20.8324L59.17 20.9937Z" fill="#302C3D"/>
<path d="M11.1639 22.3699H27.5155L27.4116 22.7599L11.0085 22.9602L11.1639 22.3699Z" fill="#302C3D"/>
<path d="M58.8353 22.3699C58.8353 22.3699 58.8334 22.3765 58.8334 22.3803L45.415 22.5417C45.4303 22.4838 45.4455 22.4249 45.4579 22.3699H58.8353Z" fill="#302C3D"/>
<path d="M11.3202 21.7863L27.6193 21.9827L27.5154 22.3699H11.1638L11.3202 21.7863Z" fill="#302C3D"/>
<path d="M58.8373 22.3594C58.8373 22.3594 58.8373 22.3661 58.8354 22.3699H45.458C45.4733 22.312 45.4857 22.2531 45.499 22.1971L58.8373 22.3585V22.3594Z" fill="#302C3D"/>
<path d="M10.7987 23.7413H27.1522L27.0454 24.1352L10.6433 24.3336L10.7987 23.7413Z" fill="#302C3D"/>
<path d="M58.4331 23.7413C58.4331 23.7413 58.4312 23.7518 58.4283 23.7565L44.988 23.9198C45.0071 23.86 45.029 23.8011 45.051 23.7413H58.4331Z" fill="#302C3D"/>
<path d="M10.9571 23.1538L27.2562 23.3493L27.1523 23.7413H10.7988L10.9571 23.1538Z" fill="#302C3D"/>
<path d="M58.4369 23.7262C58.4369 23.7262 58.435 23.7366 58.4322 23.7413H45.05C45.0691 23.6835 45.091 23.6227 45.1101 23.5648L58.436 23.7262H58.4369Z" fill="#302C3D"/>
<path d="M10.4355 25.1128H26.7862L26.6804 25.5114L10.2754 25.7088L10.4355 25.1128Z" fill="#302C3D"/>
<path d="M57.9575 25.1128C57.9556 25.1213 57.9527 25.128 57.9489 25.1346L44.3923 25.2979C44.4247 25.2352 44.4553 25.1754 44.4829 25.1128H57.9575Z" fill="#302C3D"/>
<path d="M10.5938 24.5187L26.892 24.717L26.7862 25.1128H10.4355L10.5938 24.5187Z" fill="#302C3D"/>
<path d="M57.9661 25.0909C57.9642 25.0994 57.9613 25.1061 57.9575 25.1127H44.4829C44.5134 25.0529 44.5411 24.9903 44.5697 24.9296L57.967 25.0909H57.9661Z" fill="#302C3D"/>
<path d="M10.0703 26.4823H26.4209L26.3151 26.8847L9.91016 27.0831L10.0703 26.4823Z" fill="#302C3D"/>
<path d="M57.4035 26.4823C57.3988 26.4927 57.3969 26.5013 57.3902 26.5098L43.5886 26.6759C43.6344 26.6114 43.6773 26.5468 43.7183 26.4823H57.4026H57.4035Z" fill="#302C3D"/>
<path d="M10.2276 25.8853L26.5287 26.0817L26.4209 26.4822H10.0703L10.2276 25.8853Z" fill="#302C3D"/>
<path d="M57.414 26.4539C57.4121 26.4643 57.4074 26.4728 57.4035 26.4814H43.7192C43.7602 26.4187 43.7993 26.3542 43.8403 26.2897L57.415 26.4529L57.414 26.4539Z" fill="#302C3D"/>
<path d="M9.70434 27.8538H26.0578L25.9492 28.2609L9.54419 28.4583L9.70434 27.8538Z" fill="#302C3D"/>
<path d="M56.7611 27.8538C56.7563 27.867 56.7506 27.8794 56.7439 27.8908L42.5125 28.0607C42.5754 27.9914 42.6354 27.923 42.6945 27.8538H56.7621H56.7611Z" fill="#302C3D"/>
<path d="M9.8645 27.2511L26.1656 27.4485L26.0578 27.8538H9.70435L9.8645 27.2511Z" fill="#302C3D"/>
<path d="M56.7812 27.8167C56.7745 27.83 56.7707 27.8423 56.7621 27.8537H42.6946C42.7527 27.7872 42.8118 27.718 42.8671 27.6487L56.7812 27.8167Z" fill="#302C3D"/>
<path d="M9.34126 29.2233H25.6919L25.5842 29.6342L9.1792 29.8326L9.34126 29.2233Z" fill="#302C3D"/>
<path d="M56.028 29.2233C56.0194 29.2385 56.0108 29.2536 56.0022 29.2688L41.05 29.4501C41.1435 29.377 41.2321 29.3011 41.3208 29.2242H56.028V29.2233Z" fill="#302C3D"/>
<path d="M9.50122 28.6177L25.8004 28.8141L25.6917 29.2232H9.34106L9.50122 28.6177Z" fill="#302C3D"/>
<path d="M56.0537 29.1777C56.0451 29.1929 56.0366 29.2081 56.028 29.2233H41.3208C41.4056 29.1521 41.4876 29.079 41.5696 29.004L56.0547 29.1787L56.0537 29.1777Z" fill="#302C3D"/>
<path d="M8.97602 30.5946H25.3266L25.2161 31.0103L8.81396 31.2077L8.97602 30.5946Z" fill="#302C3D"/>
<path d="M55.189 30.5946C55.1757 30.6136 55.1652 30.6316 55.1519 30.6506L38.9995 30.8442C39.1425 30.7626 39.2845 30.681 39.4237 30.5946H55.1881H55.189Z" fill="#302C3D"/>
<path d="M9.13813 29.9825L25.4373 30.179L25.3267 30.5947H8.97607L9.13813 29.9825Z" fill="#302C3D"/>
<path d="M55.2235 30.5406C55.213 30.5577 55.1996 30.5776 55.1892 30.5947H39.4248C39.4896 30.5558 39.5544 30.5169 39.6174 30.4761C39.6822 30.4353 39.7451 30.3963 39.808 30.3536L55.2244 30.5406H55.2235Z" fill="#302C3D"/>
<path d="M8.61291 31.9633H24.9635L24.8511 32.3837L8.448 32.5821L8.61291 31.9633Z" fill="#302C3D"/>
<path d="M54.2358 31.9633C54.2187 31.987 54.2034 32.0088 54.1863 32.0297L35.7546 32.2518C36.0378 32.1635 36.3171 32.0667 36.5897 31.9633H54.2358Z" fill="#302C3D"/>
<path d="M8.77485 31.3501L25.074 31.5456L24.9634 31.9632H8.61279L8.77485 31.3501Z" fill="#302C3D"/>
<path d="M54.2834 31.8968C54.2681 31.9205 54.2529 31.9423 54.2357 31.9632H36.5896C36.8212 31.8797 37.05 31.7867 37.275 31.6918L54.2834 31.8968Z" fill="#302C3D"/>
<path d="M53.152 33.3356C53.133 33.3631 53.1091 33.3897 53.0853 33.4153L8.08105 33.9582L8.24788 33.3356H53.153H53.152Z" fill="#302C3D"/>
<path d="M53.2187 33.2558C53.1967 33.2843 53.1758 33.3099 53.1519 33.3356H8.24683L8.41079 32.7158L24.7099 32.9113L24.6165 33.2644H28.6041C29.9453 33.2644 31.2161 33.178 32.421 33.0062L53.2177 33.2558H53.2187Z" fill="#302C3D"/>
<path d="M51.9298 34.7042C51.8993 34.7365 51.8688 34.7669 51.8392 34.7991L7.71484 35.3335L7.88167 34.7042H51.9298Z" fill="#302C3D"/>
<path d="M52.0184 34.6121C51.9879 34.6425 51.9602 34.6747 51.9297 34.7041H7.88159L8.04842 34.0815L52.0193 34.6111L52.0184 34.6121Z" fill="#302C3D"/>
<path d="M50.5457 36.0756C50.5047 36.1145 50.4656 36.1505 50.4266 36.1876L7.34888 36.7067L7.51761 36.0756H50.5457Z" fill="#302C3D"/>
<path d="M50.663 35.9665C50.6239 36.0054 50.5848 36.0415 50.5457 36.0766H7.51855L7.68538 35.4502L50.6639 35.9665H50.663Z" fill="#302C3D"/>
<path d="M48.9784 37.4452C48.9241 37.4907 48.8707 37.5354 48.8164 37.5762L6.98462 38.082L7.15335 37.4452H48.9784Z" fill="#302C3D"/>
<path d="M49.1338 37.3179C49.0823 37.3606 49.0298 37.4043 48.9784 37.4451H7.15234L7.32107 36.814L49.1338 37.3179Z" fill="#302C3D"/>
<path d="M47.1816 38.8166C47.1082 38.8679 47.0348 38.9201 46.9614 38.9713L6.61963 39.4554L6.78836 38.8157H47.1826L47.1816 38.8166Z" fill="#302C3D"/>
<path d="M47.3865 38.6685C47.3169 38.7179 47.2502 38.7673 47.1816 38.8176H6.78735L6.95799 38.1826L47.3865 38.6695V38.6685Z" fill="#302C3D"/>
<path d="M45.0797 40.1862C44.9805 40.2459 44.8785 40.3067 44.7746 40.3674L6.25171 40.8325L6.42425 40.1862H45.0797Z" fill="#302C3D"/>
<path d="M45.3645 40.0133C45.2721 40.0712 45.1767 40.1301 45.0795 40.1861H6.42407L6.59471 39.5464L45.3645 40.0133Z" fill="#302C3D"/>
<path d="M42.5638 41.5575C42.4189 41.6287 42.2721 41.6999 42.1253 41.771L5.8855 42.2057L6.05804 41.5575H42.5638Z" fill="#302C3D"/>
<path d="M42.9643 41.3554C42.8327 41.4247 42.6983 41.4911 42.5639 41.5575H6.05908L6.22972 40.9141L42.9643 41.3554Z" fill="#302C3D"/>
<path d="M39.1846 43.0172L39.2799 43.1767L5.52051 43.581L5.694 42.929H39.4162C39.3409 42.9593 39.2627 42.9868 39.1846 43.0172Z" fill="#302C3D"/>
<path d="M40.0252 42.6898C39.824 42.7714 39.621 42.8511 39.4151 42.9289H5.69287L5.86827 42.2788L40.0252 42.6898Z" fill="#302C3D"/>
<path d="M40.0881 44.5348L5.1543 44.9552L5.3297 44.2985H39.947L40.0881 44.5348Z" fill="#302C3D"/>
<path d="M39.9472 44.2985H5.32983L5.50333 43.6465L39.8051 44.0574L39.9472 44.2985Z" fill="#302C3D"/>
<path d="M40.9014 45.8958L4.78931 46.3305L4.96471 45.6699H40.7651L40.9014 45.8958Z" fill="#302C3D"/>
<path d="M40.765 45.6699H4.9646L5.13905 45.0112L40.6286 45.4393L40.765 45.6699Z" fill="#302C3D"/>
<path d="M4.60041 47.0394H20.952L20.8262 47.5083L4.4231 47.7066L4.60041 47.0394Z" fill="#302C3D"/>
<path d="M41.7126 47.2568L24.6565 47.4608L24.4573 47.0394H41.5829L41.7126 47.2568Z" fill="#302C3D"/>
<path d="M4.77599 46.376L21.0751 46.5743L20.9522 47.0394H4.60059L4.77599 46.376Z" fill="#302C3D"/>
<path d="M41.5829 47.0395H24.4572L24.2561 46.6105L41.4504 46.8193L41.5829 47.0395Z" fill="#302C3D"/>
<path d="M4.23537 48.4109H20.586L20.4611 48.8845L4.05615 49.0828L4.23537 48.4109Z" fill="#302C3D"/>
<path d="M42.5228 48.6168L25.298 48.8266L25.1035 48.4109H42.3998L42.5228 48.6168Z" fill="#302C3D"/>
<path d="M4.41266 47.7408L20.7118 47.9392L20.586 48.4109H4.23535L4.41266 47.7408Z" fill="#302C3D"/>
<path d="M42.3998 48.4109H25.1036L24.9053 47.9885L42.274 48.1992L42.3998 48.4109Z" fill="#302C3D"/>
<path d="M3.87036 49.7794H20.2229L20.0961 50.2578L3.69019 50.4561L3.87036 49.7794Z" fill="#302C3D"/>
<path d="M43.3341 49.9778L25.9406 50.1866L25.748 49.7794H43.215L43.3341 49.9778Z" fill="#302C3D"/>
<path d="M4.04958 49.1084L20.3487 49.3058L20.2229 49.7794H3.87036L4.04958 49.1084Z" fill="#302C3D"/>
<path d="M43.2148 49.7795H25.7479L25.5535 49.3685L43.0957 49.5802L43.2148 49.7795Z" fill="#302C3D"/>
<path d="M3.50703 51.1519H19.8576L19.7299 51.634L3.32495 51.8314L3.50703 51.1519Z" fill="#302C3D"/>
<path d="M44.1453 51.3388L26.5831 51.5514L26.3953 51.1519H44.0347L44.1453 51.3388Z" fill="#302C3D"/>
<path d="M3.6863 50.4733L19.9854 50.6716L19.8577 51.1519H3.50708L3.6863 50.4733Z" fill="#302C3D"/>
<path d="M44.0347 51.1518H26.3952L26.2026 50.7466L43.9203 50.9601L44.0347 51.1518Z" fill="#302C3D"/>
<path d="M19.4927 52.5204L19.3621 53.0092L2.95996 53.2075L3.14108 52.5204H19.4927Z" fill="#302C3D"/>
<path d="M44.9557 52.6998L27.2238 52.9143L27.0398 52.5204H44.8499L44.9557 52.6998Z" fill="#302C3D"/>
<path d="M3.32319 51.8408L19.6223 52.0382L19.4927 52.5204H3.14111L3.32319 51.8408Z" fill="#302C3D"/>
<path d="M44.8499 52.5204H27.0398L26.8511 52.1246L44.7422 52.3401L44.8499 52.5204Z" fill="#302C3D"/>
<path d="M19.1284 53.8918L18.9969 54.3835L2.90745 54.5771L2.59668 54.5723L2.7759 53.8918H19.1284Z" fill="#302C3D"/>
<path d="M45.7687 54.0598L27.8652 54.2753L27.6841 53.8918H45.6677L45.7687 54.0598Z" fill="#302C3D"/>
<path d="M19.259 53.403L19.1284 53.8918H2.77588L2.90743 53.3992L2.95986 53.2075L19.259 53.403Z" fill="#302C3D"/>
<path d="M45.6676 53.8919H27.684L27.502 53.5046L45.5656 53.722L45.6676 53.8919Z" fill="#302C3D"/>
<path d="M46.5801 55.4208L28.5078 55.6381L28.3286 55.2614H46.4847L46.5801 55.4208Z" fill="#302C3D"/>
<path d="M18.7634 55.2614L18.6319 55.7587L2.90754 55.9485L2.23071 55.9399L2.41279 55.2614H18.7634Z" fill="#302C3D"/>
<path d="M46.4848 55.2613H28.3287L28.1514 54.8807L46.3876 55.1L46.4848 55.2613Z" fill="#302C3D"/>
<path d="M18.895 54.7687L18.7635 55.2613H2.41284L2.59396 54.5808L2.90759 54.577L18.895 54.7687Z" fill="#302C3D"/>
<path d="M47.3912 56.7818L29.1483 57.0011L28.9749 56.6328H47.3026L47.3912 56.7818Z" fill="#302C3D"/>
<path d="M18.3983 56.6328L18.2658 57.133L2.9075 57.318L1.86938 57.3048L2.04669 56.6328H18.3983Z" fill="#302C3D"/>
<path d="M47.3027 56.6328H28.975L28.7996 56.2607L47.2112 56.4819L47.3027 56.6328Z" fill="#302C3D"/>
<path d="M18.5298 56.1355L18.3982 56.6328H2.04663L2.2268 55.957L2.90744 55.9485L18.5298 56.1355Z" fill="#302C3D"/>
<path d="M48.2016 58.1418L29.79 58.3639L29.6194 58.0023H48.1177L48.2016 58.1418Z" fill="#302C3D"/>
<path d="M18.0352 58.0023L17.9008 58.5082L2.90762 58.6895L1.50439 58.6724L1.68361 58.0023H18.0352Z" fill="#302C3D"/>
<path d="M48.1177 58.0023H29.6194L29.4487 57.6388L48.0338 57.8599L48.1177 58.0023Z" fill="#302C3D"/>
<path d="M18.1667 57.5002L18.0352 58.0023H1.68359L1.8609 57.3303L2.9076 57.318L18.1667 57.5002Z" fill="#302C3D"/>
<path d="M49.0128 59.5029L30.4324 59.7268L30.2656 59.3738H48.9346L49.0128 59.5029Z" fill="#302C3D"/>
<path d="M17.669 59.3738L17.5327 59.8815L2.90754 60.0581L1.14111 60.0372L1.31842 59.3738H17.669Z" fill="#302C3D"/>
<path d="M48.9347 59.3737H30.2657L30.0969 59.0168L48.8574 59.2427L48.9347 59.3737Z" fill="#302C3D"/>
<path d="M17.8034 58.8679L17.669 59.3737H1.31836L1.49567 58.7065L2.90747 58.6895L17.8034 58.8679Z" fill="#302C3D"/>
<path d="M49.8241 60.8638L31.0722 61.0896L30.9102 60.7451H49.7526L49.8241 60.8638Z" fill="#302C3D"/>
<path d="M17.3039 60.7451L17.1675 61.2576L2.90746 61.4304L0.777832 61.4038L0.953235 60.7451H17.3039Z" fill="#302C3D"/>
<path d="M49.7525 60.7452H30.9101L30.7461 60.394L49.6811 60.6247L49.7525 60.7452Z" fill="#302C3D"/>
<path d="M17.4403 60.2345L17.304 60.7451H0.953369L1.13068 60.0798L2.90759 60.058L17.4403 60.2345Z" fill="#302C3D"/>
<path d="M50.6353 62.2247L31.7146 62.4525L31.5544 62.1146H50.5695L50.6353 62.2247Z" fill="#302C3D"/>
<path d="M16.9408 62.1146L16.8026 62.6309L2.90762 62.7989L0.414795 62.7685L0.589245 62.1146H16.9408Z" fill="#302C3D"/>
<path d="M17.077 61.6003L16.9407 62.1147H0.589111L0.764515 61.456L2.90748 61.4304L17.077 61.6003Z" fill="#302C3D"/>
<path d="M50.5695 62.1147H31.5545L31.3953 61.7721L50.5028 62.0027L50.5695 62.1147Z" fill="#302C3D"/>
<path d="M51.4483 63.5848L32.357 63.8154L32.2017 63.4861H51.3873L51.4483 63.5848Z" fill="#302C3D"/>
<path d="M16.5746 63.4861L16.4363 64.0071L2.90741 64.1704L0.0961914 64.1362C0.128603 63.9227 0.1715 63.7053 0.225837 63.4861H16.5746Z" fill="#302C3D"/>
<path d="M51.3874 63.4861H32.2017L32.0435 63.152L51.3264 63.3845L51.3874 63.4861Z" fill="#302C3D"/>
<path d="M16.7137 62.965L16.5755 63.4861H0.22583C0.241083 63.4263 0.256335 63.3674 0.271587 63.3077L0.399327 62.8293L2.90835 62.799L16.7137 62.965Z" fill="#302C3D"/>
<path d="M52.2568 64.9458L32.9968 65.1783L32.8462 64.8556H52.2054L52.2568 64.9458Z" fill="#302C3D"/>
<path d="M16.2096 64.8556L16.0714 65.3814L2.90853 65.5408L0.00389392 65.5067C-0.00277903 65.2931 -0.000872472 65.0758 0.01438 64.8565H16.2096V64.8556Z" fill="#302C3D"/>
<path d="M52.2053 64.8556H32.8461L32.6926 64.53L52.1481 64.7645L52.2053 64.8556Z" fill="#302C3D"/>
<path d="M16.3498 64.3318L16.2096 64.8547H0.0144043C0.0277502 64.6412 0.0515821 64.4238 0.0859001 64.2046L2.9076 64.1704L16.3498 64.3318Z" fill="#302C3D"/>
<path d="M53.0699 66.3068L33.6392 66.5412L33.4924 66.2271H53.0222L53.0699 66.3068Z" fill="#302C3D"/>
<path d="M15.8464 66.2271L15.7034 66.7566L2.90755 66.9113L0.191658 66.8791C0.135414 66.6684 0.0944232 66.451 0.0620117 66.2271H15.8464Z" fill="#302C3D"/>
<path d="M53.0222 66.2271H33.4924L33.3408 65.9082L52.9726 66.1455L53.0222 66.2271Z" fill="#302C3D"/>
<path d="M15.9864 65.6975L15.8453 66.2271H0.0618586C0.0313537 66.0135 0.0122882 65.7962 0.00561523 65.5751L2.90739 65.5409L15.9864 65.6984V65.6975Z" fill="#302C3D"/>
<path d="M53.8811 67.6668L34.3056 67.9012C34.2474 67.8025 34.1912 67.699 34.1416 67.5956H53.8382L53.8811 67.6668Z" fill="#302C3D"/>
<path d="M15.4804 67.5956L15.3374 68.1299L2.90758 68.2808L0.738875 68.2552C0.617809 68.0445 0.511995 67.8243 0.42334 67.5965H15.4813L15.4804 67.5956Z" fill="#302C3D"/>
<path d="M53.8372 67.5956H34.1406C34.1129 67.5444 34.0862 67.4903 34.0605 67.4362L33.989 67.2853L53.7934 67.5244L53.8363 67.5956H53.8372Z" fill="#302C3D"/>
<path d="M15.6213 67.0642L15.4812 67.5957H0.423228C0.338386 67.385 0.264984 67.1676 0.20874 66.9436L2.90747 66.9114L15.6213 67.0642Z" fill="#302C3D"/>
<path d="M54.6916 69.0278L35.3763 69.2603C35.2771 69.1683 35.1799 69.0686 35.0884 68.968H54.6544L54.6916 69.0288V69.0278Z" fill="#302C3D"/>
<path d="M15.1151 68.968L14.9721 69.5061L2.90742 69.6523L1.85405 69.639C1.6205 69.434 1.40601 69.2081 1.21631 68.967H15.1151V68.968Z" fill="#302C3D"/>
<path d="M54.6552 68.9681H35.0891C34.9986 68.8713 34.9118 68.7697 34.8298 68.6663L54.6189 68.9054L54.6561 68.9681H54.6552Z" fill="#302C3D"/>
<path d="M15.2581 68.4289L15.1151 68.9671H1.2163C1.04757 68.7602 0.898863 68.539 0.766357 68.3065L2.90742 68.2809L15.2571 68.4299L15.2581 68.4289Z" fill="#302C3D"/>
<path d="M14.752 70.3365L14.6071 70.8813L4.81689 71C4.11623 70.8861 3.47658 70.6706 2.90747 70.365V70.3365H14.752Z" fill="#302C3D"/>
<path d="M55.5027 70.3888L37.5363 70.6061C37.3246 70.5245 37.1187 70.4362 36.9224 70.3365H55.4722L55.5027 70.3878V70.3888Z" fill="#302C3D"/>
<path d="M2.90761 70.3365V70.365C2.89045 70.3584 2.87043 70.3479 2.85327 70.3365H2.90761Z" fill="#302C3D"/>
<path d="M55.4722 70.3366H36.9223C36.7469 70.2502 36.5849 70.1582 36.4209 70.0566L55.4426 70.2844L55.4731 70.3357L55.4722 70.3366Z" fill="#302C3D"/>
<path d="M14.8949 69.7966L14.7519 70.3366H2.85403C2.50132 70.1468 2.1772 69.9209 1.8855 69.6647L2.90837 69.6514L14.8949 69.7956V69.7966Z" fill="#302C3D"/>
<path d="M66.8866 41.2472C70.2174 41.2472 72.8532 42.3026 74.7969 44.4114C76.7397 46.5212 77.7111 49.4425 77.7111 53.1753C77.7111 54.5942 77.5548 56.106 77.2431 57.7109H62.4634C62.533 59.3908 63.0621 60.7442 64.0506 61.7711C65.0392 62.798 66.5568 63.3115 68.6044 63.3115C69.8532 63.3115 71.1621 63.191 72.5339 62.948C73.9037 62.706 75.0915 62.3415 76.0982 61.8556L77.1392 67.6241C75.8198 68.334 74.3375 68.875 72.6902 69.248C71.042 69.621 69.3337 69.808 67.5644 69.808C65.3442 69.808 63.3833 69.4625 61.6837 68.7716C59.983 68.0816 58.5617 67.1192 57.4168 65.8873C56.2719 64.6554 55.4044 63.1805 54.8143 61.4636C54.2243 59.7467 53.9297 57.8429 53.9297 55.7511C53.9297 53.5112 54.2328 51.4954 54.8401 49.7035C55.4464 47.9117 56.3138 46.3903 57.4425 45.1394C58.5693 43.8894 59.9315 42.9271 61.5273 42.2551C63.1231 41.5832 64.9095 41.2472 66.8876 41.2472H66.8866ZM66.6264 46.9597C65.3071 46.9597 64.2928 47.4172 63.5816 48.3321C62.8705 49.247 62.5149 50.5074 62.5149 52.1123H69.9047C69.9734 51.8143 70.0086 51.4963 70.0086 51.1604C70.0086 49.9664 69.7131 48.968 69.124 48.1641C68.5339 47.3621 67.7007 46.9597 66.6264 46.9597Z" fill="#302C3D"/>
<path d="M93.6854 41.2472C95.0037 41.2472 96.2954 41.3971 97.5623 41.6951C98.8283 41.9941 99.9303 42.405 100.866 42.927L100.034 49.3115C99.3745 49.0278 98.5852 48.78 97.6663 48.5665C96.7463 48.3539 95.8188 48.2467 94.8817 48.2467C92.6615 48.2467 90.9962 48.8949 89.8856 50.1923C88.775 51.4887 88.2202 53.2683 88.2202 55.5271C88.2202 57.7859 88.775 59.5654 89.8856 60.8619C90.9952 62.1583 92.6606 62.8075 94.8817 62.8075C95.8188 62.8075 96.7463 62.7012 97.6663 62.4877C98.5852 62.2751 99.3745 62.0264 100.034 61.7426L100.866 68.1271C99.9293 68.6501 98.8283 69.061 97.5623 69.359C96.2954 69.657 95.0037 69.807 93.6854 69.807C91.5338 69.807 89.6006 69.4615 87.8828 68.7706C86.1659 68.0806 84.7169 67.1097 83.5377 65.8588C82.3576 64.6089 81.4558 63.1065 80.8314 61.3507C80.207 59.5967 79.8943 57.6549 79.8943 55.5271C79.8943 53.3992 80.207 51.4584 80.8314 49.7026C81.4558 47.9477 82.3576 46.4453 83.5377 45.1944C84.7169 43.9445 86.1659 42.9735 87.8828 42.2826C89.5996 41.5926 91.5338 41.2462 93.6854 41.2462V41.2472Z" fill="#302C3D"/>
<path d="M126.054 62.0236H112.783L110.65 69.248H101.855L114.76 31.9519H124.127L137.033 69.248H128.238L126.052 62.0236H126.054ZM114.97 54.7432H123.869L119.446 39.0074L114.97 54.7432Z" fill="#302C3D"/>
<path d="M151.607 41.2472C152.925 41.2472 154.217 41.3971 155.483 41.6951C156.749 41.9941 157.851 42.405 158.788 42.927L157.955 49.3115C157.296 49.0278 156.506 48.78 155.587 48.5665C154.667 48.3539 153.74 48.2467 152.803 48.2467C150.583 48.2467 148.917 48.8949 147.807 50.1923C146.696 51.4887 146.141 53.2683 146.141 55.5271C146.141 57.7859 146.696 59.5654 147.807 60.8619C148.916 62.1583 150.582 62.8075 152.803 62.8075C153.74 62.8075 154.667 62.7012 155.587 62.4877C156.506 62.2751 157.296 62.0264 157.955 61.7426L158.788 68.1271C157.85 68.6501 156.749 69.061 155.483 69.359C154.217 69.657 152.925 69.807 151.607 69.807C149.455 69.807 147.522 69.4615 145.804 68.7706C144.087 68.0806 142.638 67.1097 141.459 65.8588C140.279 64.6089 139.377 63.1065 138.753 61.3507C138.128 59.5967 137.815 57.6549 137.815 55.5271C137.815 53.3992 138.128 51.4584 138.753 49.7026C139.377 47.9477 140.279 46.4453 141.459 45.1944C142.638 43.9445 144.087 42.9735 145.804 42.2826C147.521 41.5926 149.455 41.2462 151.607 41.2462V41.2472Z" fill="#302C3D"/>
<path d="M174.295 41.2472C175.614 41.2472 176.906 41.3971 178.172 41.6951C179.438 41.9941 180.54 42.405 181.477 42.927L180.645 49.3115C179.986 49.0278 179.196 48.78 178.277 48.5665C177.357 48.3539 176.43 48.2467 175.493 48.2467C173.273 48.2467 171.607 48.8949 170.497 50.1923C169.386 51.4887 168.831 53.2683 168.831 55.5271C168.831 57.7859 169.386 59.5654 170.497 60.8619C171.606 62.1583 173.272 62.8075 175.493 62.8075C176.43 62.8075 177.357 62.7012 178.277 62.4877C179.196 62.2751 179.986 62.0264 180.645 61.7426L181.477 68.1271C180.54 68.6501 179.439 69.061 178.172 69.359C176.906 69.657 175.614 69.807 174.295 69.807C172.144 69.807 170.211 69.4615 168.493 68.7706C166.775 68.0806 165.327 67.1097 164.148 65.8588C162.968 64.6089 162.066 63.1065 161.441 61.3507C160.817 59.5967 160.504 57.6549 160.504 55.5271C160.504 53.3992 160.817 51.4584 161.441 49.7026C162.066 47.9477 162.968 46.4453 164.148 45.1944C165.327 43.9445 166.776 42.9735 168.493 42.2826C170.21 41.5926 172.144 41.2462 174.295 41.2462V41.2472Z" fill="#302C3D"/>
<path d="M196.255 41.2472C199.586 41.2472 202.222 42.3026 204.165 44.4114C206.108 46.5212 207.08 49.4425 207.08 53.1753C207.08 54.5942 206.923 56.106 206.611 57.7109H191.832C191.901 59.3908 192.431 60.7442 193.419 61.7711C194.408 62.798 195.925 63.3115 197.973 63.3115C199.222 63.3115 200.531 63.191 201.902 62.948C203.272 62.706 204.46 62.3415 205.467 61.8556L206.508 67.6241C205.188 68.334 203.706 68.875 202.059 69.248C200.41 69.621 198.702 69.808 196.933 69.808C194.713 69.808 192.752 69.4625 191.052 68.7716C189.351 68.0816 187.93 67.1192 186.785 65.8873C185.64 64.6554 184.773 63.1805 184.184 61.4636C183.594 59.7467 183.299 57.8429 183.299 55.7511C183.299 53.5112 183.602 51.4954 184.209 49.7035C184.816 47.9117 185.683 46.3903 186.811 45.1394C187.938 43.8894 189.3 42.9271 190.896 42.2551C192.492 41.5832 194.278 41.2472 196.256 41.2472H196.255ZM195.995 46.9597C194.676 46.9597 193.661 47.4172 192.95 48.3321C192.239 49.247 191.883 50.5074 191.883 52.1123H199.273C199.343 51.8143 199.377 51.4963 199.377 51.1604C199.377 49.9664 199.082 48.968 198.492 48.1641C197.902 47.3621 197.069 46.9597 195.995 46.9597Z" fill="#302C3D"/>
<path d="M229.3 60.2877C229.3 61.8185 229.031 63.1814 228.493 64.3754C227.955 65.5703 227.192 66.5687 226.203 67.3716C225.215 68.1745 224.043 68.781 222.691 69.192C221.338 69.6029 219.845 69.8079 218.215 69.8079C216.827 69.8079 215.369 69.6684 213.843 69.3884C212.316 69.1084 210.929 68.688 209.68 68.128L210.825 61.9115C211.9 62.3975 213.089 62.761 214.389 63.0039C215.691 63.2469 216.826 63.3674 217.798 63.3674C218.771 63.3674 219.68 63.2089 220.426 62.891C221.172 62.574 221.546 62.0425 221.546 61.2946C221.546 60.6227 221.216 60.1462 220.557 59.8663C219.897 59.5863 218.909 59.1858 217.59 58.6619C216.515 58.2519 215.509 57.7935 214.572 57.2895C213.636 56.7855 212.829 56.1886 212.153 55.4976C211.476 54.8076 210.947 54.0133 210.566 53.1173C210.184 52.2214 209.994 51.1765 209.994 49.9816C209.994 46.9948 210.931 44.7929 212.804 43.3731C214.677 41.9542 217.123 41.2452 220.141 41.2452C221.737 41.2452 223.194 41.4047 224.513 41.7207C225.832 42.0387 227.098 42.5702 228.312 43.3171L227.167 49.1976C226.23 48.7496 225.241 48.3852 224.2 48.1052C223.16 47.8252 222.067 47.6848 220.922 47.6848C219.916 47.6848 219.144 47.7882 218.607 47.9932C218.068 48.1992 217.8 48.6187 217.8 49.2536C217.8 49.8885 218.121 50.346 218.763 50.626C219.405 50.906 220.228 51.2514 221.235 51.6624C221.997 51.9613 222.848 52.3258 223.785 52.7548C224.722 53.1847 225.597 53.7352 226.413 54.4071C227.228 55.0791 227.914 55.8915 228.468 56.8434C229.023 57.7954 229.301 58.9438 229.301 60.2877H229.3Z" fill="#302C3D"/>
<path d="M251 60.2877C251 61.8185 250.731 63.1814 250.194 64.3754C249.655 65.5703 248.892 66.5687 247.904 67.3716C246.915 68.1745 245.745 68.781 244.391 69.192C243.038 69.602 241.545 69.8079 239.915 69.8079C238.527 69.8079 237.07 69.6684 235.544 69.3884C234.016 69.1084 232.629 68.688 231.381 68.128L232.526 61.9115C233.601 62.3975 234.79 62.761 236.09 63.0039C237.391 63.2469 238.526 63.3674 239.499 63.3674C240.471 63.3674 241.38 63.2089 242.127 62.891C242.872 62.574 243.246 62.0425 243.246 61.2946C243.246 60.6227 242.916 60.1462 242.258 59.8663C241.598 59.5863 240.609 59.1858 239.291 58.6619C238.215 58.2519 237.209 57.7935 236.273 57.2895C235.337 56.7855 234.529 56.1886 233.853 55.4976C233.177 54.8076 232.648 54.0133 232.266 53.1173C231.884 52.2214 231.694 51.1765 231.694 49.9816C231.694 46.9948 232.631 44.7929 234.505 43.3731C236.378 41.9542 238.824 41.2452 241.842 41.2452C243.438 41.2452 244.894 41.4047 246.214 41.7207C247.532 42.0387 248.798 42.5702 250.012 43.3171L248.868 49.1976C247.93 48.7496 246.942 48.3852 245.901 48.1052C244.86 47.8252 243.768 47.6848 242.623 47.6848C241.616 47.6848 240.845 47.7882 240.307 47.9932C239.769 48.1992 239.501 48.6187 239.501 49.2536C239.501 49.8885 239.821 50.346 240.463 50.626C241.105 50.906 241.929 51.2514 242.935 51.6624C243.698 51.9613 244.548 52.3258 245.485 52.7548C246.422 53.1847 247.298 53.7352 248.114 54.4071C248.929 55.0791 249.614 55.8915 250.169 56.8434C250.724 57.7954 251.001 58.9438 251.001 60.2877H251Z" fill="#302C3D"/>
</g>
<defs>
<clipPath id="clip0_250_665">
<rect width="251" height="71" fill="white"/>
</clipPath>
</defs>
</svg>
